<svg id="Capa_1" xmlns="http://www.w3.org/2000/svg" viewBox="0 0 24 24"><defs><style>.cls-1{fill:#acacb5;stroke-width:0px;}</style></defs><g id="VX1Xn8.tif"><path class="cls-1" d="M19.72,22.26c.12-.06.17-.09.22-.11,1.67-.7,2.34-2.11,1.85-3.86-.34-1.18-.68-2.36-1-3.55-.25-.92-.62-1.78-1.18-2.56-.96-1.34-2.14-2.33-3.88-2.44-.46-.03-.92-.1-1.42-.16.09-.09.16-.14.22-.2.66-.59,1.15-1.32,1.21-2.2.08-1.06.12-2.14,0-3.19-.23-1.84-1.97-3.22-3.81-3.15-1.96.07-3.56,1.54-3.71,3.44-.06.8-.05,1.61-.02,2.42.04,1.14.53,2.07,1.41,2.79.03.03.08.03.12.05-.53.12-1,.19-1.48.23-.74.08-1.44.28-2.05.73-1.3.95-2.2,2.21-2.68,3.74-.45,1.42-.84,2.86-1.23,4.3-.09.32-.13.67-.11,1,.09,1.28.82,2.09,1.96,2.58.08.04.17.07.25.11,0,.02,0,.03-.01.05H1.29v1.09h21.41v-1.11h-2.99ZM9.3,6.64c-.01-.36,0-.71,0-1.07,0,0-.02,0-.03,0,.03-.48,0-.98.09-1.45.25-1.37,1.52-2.29,2.93-2.16,1.32.12,2.4,1.27,2.42,2.63.01.8.04,1.6-.05,2.39-.16,1.33-1.45,2.34-2.75,2.25-1.44-.09-2.55-1.19-2.6-2.59ZM17.4,22.06H6.71v-7h10.69v7ZM18.54,21.37v-.35c0-1.95,0-3.91,0-5.86,0-.62-.31-1.05-.85-1.19-.12-.03-.24-.03-.36-.03-3.51,0-7.02,0-10.53,0-.77,0-1.21.44-1.21,1.21,0,1.94,0,3.89,0,5.83v.42c-.49-.16-.92-.25-1.31-.44-.84-.42-1.2-1.23-.95-2.14.4-1.45.8-2.89,1.24-4.32.38-1.21,1.11-2.2,2.11-2.99.53-.42,1.14-.55,1.78-.64,2.25-.3,4.51-.32,6.76-.05.39.05.78.09,1.15.18.79.19,1.36.71,1.88,1.29.66.75,1.13,1.61,1.4,2.58.35,1.29.74,2.56,1.09,3.85.31,1.13-.16,2.01-1.26,2.41-.29.1-.6.15-.95.24Z"></path><path class="cls-1" d="M15.87,16.38v4.98h-1.09v-3.86h-1.1v3.87h-1.14v-2.76h-1.1v2.78c-.35,0-.68,0-1.01,0-.05,0-.12-.13-.12-.2-.01-.29,0-.59,0-.9h-1.1v1.08h-1.09v-2.2h2.2v-1.68h2.23v-1.1h3.32Z"></path></g></svg>