<svg id="Capa_1" xmlns="http://www.w3.org/2000/svg" viewBox="0 0 24 24"><defs><style>.cls-1{fill:#acacb5;stroke-width:0px;}</style></defs><polygon class="cls-1" points="9.86 2 9.86 2.87 20.36 2.87 20.36 21.13 9.86 21.13 9.86 22 21.22 22 21.22 2 9.86 2"></polygon><path class="cls-1" d="M10.95,8.33c.3-1.29-.09-2.62-.96-3.58-.29-.34-.65-.63-1.06-.85-.46-.24-.94-.4-1.45-.47-.02,0-.28-.01-.5-.01h-.27c-.64.04-1.23.22-1.78.54-1.5.88-2.28,2.56-1.95,4.26.27,1.36,1.06,2.35,2.32,2.95.05.02.08.05.07.11v7.69c0,.73.45,1.35,1.14,1.56.1.03.23.07.3.07.06,0,.12,0,.17-.01.34-.01.46-.06.51-.08.58-.21.93-.62,1.06-1.22.03-.1.03-.21.03-.32v-7.7s.02-.08.07-.1c.54-.26.99-.58,1.34-.98.47-.5.79-1.12.96-1.86ZM7.97,18.98c0,.54-.41.98-.95,1.01h-.04c-.5,0-.94-.38-1-.9v-7.68c.33.09.67.13,1,.13s.66-.04.99-.13v7.57ZM6.98,10.92c-1.92,0-3.46-1.54-3.46-3.46.01-1.89,1.55-3.46,3.46-3.45h.03c1.29,0,2.4.73,2.98,1.78.28.5.44,1.08.44,1.69s-.16,1.17-.44,1.66c-.58,1.06-1.72,1.78-3.01,1.78Z"></path><path class="cls-1" d="M17.53,19.67h2.08v-8.44h-2.08v8.44ZM18.14,11.84h.86v7.22h-.86v-7.22Z"></path><path class="cls-1" d="M16.91,19.67v-6.42h-2.08v6.42h2.08ZM15.44,13.86h.86v5.2h-.86v-5.2Z"></path><path class="cls-1" d="M14.22,19.67v-5.04h-2.08v5.04h2.08ZM12.75,15.24h.86v3.82h-.86v-3.82Z"></path><rect class="cls-1" x="12.02" y="4.2" width="7.41" height=".85"></rect><rect class="cls-1" x="12.02" y="6.6" width="7.41" height=".85"></rect><rect class="cls-1" x="12.02" y="9" width="7.41" height=".85"></rect></svg>