<svg id="Capa_1" xmlns="http://www.w3.org/2000/svg" viewBox="0 0 24 24"><defs><style>.cls-1{fill:#acacb5;stroke-width:0px;}</style></defs><g id="qmUxkW"><path class="cls-1" d="M4.77,12.27c.12,1.99,1.67,3.68,3.66,3.88.96.1,1.93.04,2.89.05.52,0,.61.09.61.62,0,.11,0,.23,0,.34,0,.25-.11.42-.33.52-.16.07-.32.14-.49.2-.59.24-.94.68-1.08,1.3-.07.33-.19.43-.52.43-.36,0-.72,0-1.08,0-.32,0-.44-.1-.51-.41-.01-.06-.03-.12-.04-.18-.21-1.05-2.29-1.97-3.25-1.19-.25.2-.41.17-.65-.06-.26-.25-.51-.51-.76-.76-.24-.25-.26-.38-.07-.67.36-.55.4-1.13.14-1.73-.06-.14-.12-.29-.18-.44-.25-.61-.69-.98-1.33-1.11-.27-.05-.4-.2-.4-.47,0-.39,0-.79,0-1.18,0-.26.13-.41.38-.46.69-.13,1.13-.55,1.39-1.19.19-.48.42-.94.26-1.47-.07-.23-.18-.46-.29-.67-.11-.21-.11-.39.05-.55.29-.3.58-.59.87-.88.17-.17.36-.19.57-.05.59.4,1.2.43,1.85.14.13-.06.26-.1.39-.16.58-.25.95-.68,1.08-1.3.08-.34.17-.42.52-.42.38,0,.75,0,1.13,0,.26,0,.41.13.45.38.13.68.52,1.13,1.17,1.37.13.05.26.1.39.16.23.11.35.28.35.54,0,.15,0,.3,0,.45,0,.37-.14.5-.52.5-.46,0-.93,0-1.39,0,0-.02,0-.05,0-.07-.69.06-1.39.05-2.06.2-1.98.45-3.3,2.3-3.18,4.33Z"></path><path class="cls-1" d="M20.77,7.78c-.64-.17-1.32.09-1.65.67-.1.18-.21.22-.39.21-.67,0-1.33,0-2,0-.32,0-.58.1-.8.33-.41.41-.83.81-1.22,1.23-.2.22-.42.29-.72.29-1.48-.01-2.97,0-4.45,0-.43,0-.55.11-.55.54,0,.44.11.56.56.56.8,0,1.6,0,2.4,0s1.63,0,2.45,0c.32,0,.58-.1.8-.33.43-.44.87-.87,1.3-1.31.14-.15.3-.22.51-.22.59,0,1.18,0,1.76,0,.17,0,.26.05.35.2.35.6,1.03.86,1.67.68.64-.19,1.08-.78,1.08-1.43,0-.66-.46-1.25-1.09-1.42ZM20.37,9.91c-.38,0-.7-.33-.69-.71.01-.37.33-.68.7-.68.38,0,.71.34.69.72-.01.37-.33.68-.7.68Z"></path><path class="cls-1" d="M17.28,11.61c-.65-.17-1.32.1-1.66.7-.08.15-.17.19-.33.19-.96,0-1.93,0-2.89,0s-1.95,0-2.92,0c-.18,0-.35.02-.45.21-.24.45,0,.88.51.88,1.91,0,3.82,0,5.73,0,.17,0,.26.04.35.2.35.61,1.03.87,1.69.68.62-.18,1.08-.79,1.06-1.44-.01-.66-.46-1.24-1.1-1.41ZM16.89,13.73c-.37,0-.69-.31-.69-.69,0-.39.32-.7.71-.7.38,0,.69.31.69.69,0,.38-.32.7-.71.7Z"></path><path class="cls-1" d="M15.92,5.63c-.48-.44-1.18-.52-1.74-.21-.55.31-.91.97-.71,1.56.16.46.01.71-.29.98-.11.09-.2.2-.28.31-.15.2-.34.27-.59.27-.96-.01-1.91,0-2.87,0-.36,0-.46.15-.46.58,0,.38.12.51.47.52.54,0,1.09,0,1.63,0s1.07,0,1.61,0c.31,0,.56-.11.77-.34.29-.32.59-.63.87-.95.12-.14.23-.19.42-.16.63.09,1.24-.26,1.51-.83.28-.59.14-1.28-.33-1.71ZM14.91,7.41c-.38,0-.68-.31-.69-.69,0-.4.31-.7.7-.7.38,0,.69.31.69.69,0,.39-.32.7-.7.7Z"></path><path class="cls-1" d="M16.12,16.66c-.23-.66-.88-1.08-1.59-.98-.2.03-.3-.02-.42-.17-.18-.22-.39-.43-.57-.65-.23-.27-.52-.4-.87-.4-.36,0-.72,0-1.08,0-.16,0-.31,0-.47,0-.31,0-.62,0-.93,0-.23,0-.47,0-.7,0-.39,0-.51.13-.51.53,0,.43.11.56.5.57.79,0,1.58,0,2.37,0,1.05.01.71-.13,1.44.65.12.13.12.23.06.39-.22.58-.11,1.11.31,1.56.47.51,1.25.6,1.83.24.59-.36.85-1.09.63-1.74ZM14.72,17.84c-.39,0-.7-.32-.69-.71,0-.37.32-.68.7-.68.4,0,.7.31.69.71,0,.38-.31.68-.69.68Z"></path></g></svg>