<svg id="Capa_1" xmlns="http://www.w3.org/2000/svg" viewBox="0 0 24 24"><defs><style>.cls-1{fill:#acacb5;stroke-width:0px;}</style></defs><g id="SvTunj.tif"><path class="cls-1" d="M10.64,4.02c0-.87-.43-1.32-1.29-1.32-2.23-.01-4.46-.01-6.7,0-.91,0-1.34.43-1.34,1.35,0,2.98,0,5.97,0,8.95,0,.95.43,1.36,1.4,1.36,2.18,0,4.37.01,6.55,0,.95,0,1.37-.42,1.37-1.39,0-1.48,0-2.96,0-4.44s0-3.01,0-4.51ZM4.76,3.87c.82-.03,1.64-.03,2.46,0,.63.03,1.08.55,1.07,1.15,0,.61-.44,1.1-1.08,1.15-.41.03-.82,0-1.23,0s-.82.02-1.23,0c-.64-.04-1.09-.52-1.11-1.12-.01-.63.45-1.16,1.11-1.19ZM7.23,13.17c-.85.04-1.7.05-2.55,0-.62-.03-1.08-.6-1.03-1.2.05-.64.43-1.03,1.07-1.1.43-.05.87,0,1.31,0h0c.39,0,.78-.03,1.17,0,.64.05,1.1.53,1.11,1.13,0,.62-.42,1.13-1.07,1.17ZM7.22,9.68c-.41.03-.83,0-1.24,0s-.83.03-1.24,0c-.64-.05-1.09-.55-1.09-1.15,0-.61.43-1.12,1.08-1.15.82-.04,1.65-.04,2.48,0,.64.03,1.09.54,1.09,1.15,0,.6-.45,1.11-1.08,1.16Z"></path><path class="cls-1" d="M19.32,9.65c-1.63,1.65-1.73,1.65-3.34.03-1.05-1.05-.91-1.82.48-2.42-.08-.72-.49-1.06-1.2-1.07-.73,0-1.46.01-2.18,0-.78-.02-1.29-.51-1.27-1.2.02-.66.51-1.11,1.26-1.13.66-.02,1.31-.01,1.97,0,2.23.01,3.52,1.17,3.79,3.44,1.35.51,1.51,1.33.49,2.36Z"></path><path class="cls-1" d="M22.64,20.13c-.06.28-.4.64-.68.72-.81.23-1.66.46-2.49.47-1.55.01-3.1-.05-4.64-.24-1.36-.17-1.48-.42-1.49-1.81v-.86c3.63.88,5.72.88,9.33,0,0,.59.08,1.17-.03,1.72Z"></path><path class="cls-1" d="M20.87,17.65c-1.95.34-3.92.34-5.87-.03-1.61-.3-1.68-.41-1.66-2.04,0-.22,0-.43,0-.67,3.13.88,6.21.88,9.33,0,0,.21,0,.41,0,.6.01,1.73-.05,1.84-1.8,2.14Z"></path><path class="cls-1" d="M22.66,13.2c0,.34-.57.64-.9.71-.06.01-.12.03-.19.04-2.34.47-4.77.46-7.11,0-.08-.02-.17-.03-.25-.05-.32-.06-.86-.3-.86-.67s.52-.61.83-.7c2.53-.68,5.08-.68,7.62-.01.32.08.86.34.86.68Z"></path></g></svg>