<svg id="Capa_2" xmlns="http://www.w3.org/2000/svg" viewBox="0 0 21.27 22.74"><defs><style>.cls-1{stroke-width:0px;}</style></defs><g id="Capa_1-2"><g id="AzmNaL"><path class="cls-1" d="M14.8,10.5c1.13,0,2.25,0,3.38,0,.15,0,.34.04.43.13,1.09,1.05,2.08.85,2.66-.54v-.39c-.41-1.02-1-1.42-1.82-1.18-.24.07-.52.2-.65.39-.22.31-.47.34-.79.34-1.5,0-3,0-4.51,0h-.59v-1.89c.11,0,.27-.02.42-.02.78,0,1.57,0,2.35,0,.55,0,.77-.24.78-.77,0-.8-.01-1.6.01-2.4,0-.19.12-.43.25-.56.62-.59.68-1.52.1-2.1-.57-.57-1.52-.55-2.06.05-.56.61-.47,1.52.17,2.09.13.12.24.33.25.51.03.62.01,1.24.01,1.89h-2.39c-.09-.8-.17-1.6-.27-2.41-.14-1.16-.4-2.28-1.45-2.97-.43-.28-.93-.44-1.39-.66h-.98c-.57.25-1.17.46-1.71.77-.32.19-.67.49-.81.82-.35.88-1.03,1.24-1.82,1.66-1.5.79-2.16,2.19-2.24,3.86-.02.34-.11.56-.38.77-.98.76-1.55,1.78-1.76,2.99v.78c.22,1.08.67,2.03,1.47,2.81.1.09.09.33.07.5-.23,2.38,1.46,4.56,3.84,4.94.11.02.27.1.29.18.48,1.5,1.58,2.29,3.06,2.65h.98c1.46-.39,2.38-1.34,2.7-2.79.16-.7.1-1.46.15-2.19.01-.22.05-.45.07-.68h1.49c0,.59,0,1.16,0,1.72,0,.1-.12.21-.21.29-.69.6-.76,1.5-.18,2.12.55.58,1.51.58,2.06,0,.59-.62.51-1.52-.16-2.13-.11-.1-.2-.29-.21-.44-.02-.67,0-1.34,0-2.01,0-.64-.2-.84-.85-.85-.58,0-1.17,0-1.75,0v-1.77h6.33v.8c0,.78,0,1.57,0,2.35,0,.51,0,.97-.42,1.41-.57.6-.3,1.59.42,2.02.71.42,1.63.14,1.99-.62.06-.13.11-.27.17-.4v-.39c-.25-.35-.5-.69-.73-1.05-.09-.13-.14-.31-.14-.47-.01-1.37,0-2.74,0-4.11,0-.64-.21-.84-.85-.84-2.2,0-4.4,0-6.63,0v-2.24h1.9ZM10.51,20.58c-.66.79-1.79.85-2.63.17-.9-.73-1.07-1.72-.34-2.56.38-.43.89-.76,1.37-1.08.48-.32.65-.68.44-1.09-.22-.42-.66-.51-1.18-.24-1.09.58-2,1.35-2.45,2.53-1.1.02-2.33-1.05-2.56-2.27-.08-.42-.09-.89.02-1.3.14-.56,0-.91-.44-1.27-1.5-1.27-1.54-2.97-.12-4.26.16-.14.32-.29.5-.39.5-.27.64-.66.59-1.22-.1-1.16.29-2.15,1.23-2.88.2-.15.45-.25.63-.35.38.53.7,1.03,1.09,1.48.36.42.83.46,1.16.16.35-.31.32-.77-.09-1.2-.52-.56-.86-1.18-.54-1.95.35-.82,1-1.28,1.89-1.34.81-.05,1.4.39,1.71,1.08.24.53.46,1.14.46,1.71.04,4.72.02,9.44.03,14.16,0,.81-.29,1.5-.79,2.1Z"></path><path class="cls-1" d="M6.77,13.55c.24.37.18.8-.14,1.05-.32.25-.77.21-1.05-.14-.7-.85-1.08-1.84-1.17-2.94,0-.13,0-.26,0-.39,0-1.29.45-2.41,1.33-3.36.38-.41.87-.47,1.2-.15.33.31.3.75-.08,1.16-1.15,1.29-1.28,3.02-.32,4.45.07.11.16.21.23.32Z"></path></g></g></svg>