<svg width="24" height="24" viewBox="0 0 24 24" fill="none" xmlns="http://www.w3.org/2000/svg">
<path d="M14.782 20.908C14.5903 21.2843 14.2843 21.5903 13.908 21.782C13.4802 22 12.9201 22 11.8 22H4.2C3.07989 22 2.51984 22 2.09202 21.782C1.71569 21.5903 1.40973 21.2843 1.21799 20.908C1 20.4802 1 19.9201 1 18.8V5.2C1 4.0799 1 3.51984 1.21799 3.09202C1.40973 2.71569 1.71569 2.40973 2.09202 2.21799C2.51984 2 3.0799 2 4.2 2H11.8C12.9201 2 13.4802 2 13.908 2.21799C14.2843 2.40973 14.5903 2.71569 14.782 3.09202C15 3.51984 15 3.37989 15 4.5M8 17.5H8.01M8.5 17.5C8.5 17.7761 8.27614 18 8 18C7.72386 18 7.5 17.7761 7.5 17.5C7.5 17.2239 7.72386 17 8 17C8.27614 17 8.5 17.2239 8.5 17.5Z" stroke="#acacb5" stroke-linecap="round" stroke-linejoin="round"></path>
<g clip-path="url(#clip0_4354_1170)">
<path d="M16.6875 14.375L18.5625 12.5L16.6875 10.625M12.3125 10.625L10.4375 12.5L12.3125 14.375M15.125 9.375L13.875 15.625M20.75 12.5C20.75 15.9518 17.9518 18.75 14.5 18.75C11.0482 18.75 8.25 15.9518 8.25 12.5C8.25 9.04822 11.0482 6.25 14.5 6.25C17.9518 6.25 20.75 9.04822 20.75 12.5Z" stroke="#acacb5" stroke-linecap="round" stroke-linejoin="round"></path>
</g>
<line x1="1" y1="4.5" x2="10" y2="4.5" stroke="#acacb5"></line>
<defs>
<clipPath id="clip0_4354_1170">
<rect width="15" height="15" fill="#acacb5" transform="translate(7 5)"></rect>
</clipPath>
</defs>
</svg>